<svg width="74" height="74" viewBox="0 0 74 74" fill="none" xmlns="http://www.w3.org/2000/svg">
<path d="M70.5313 71.6875C70.4642 71.6875 70.3971 71.6829 70.3324 71.6713L53.6408 68.7391C53.2153 68.6628 52.8684 68.3598 52.7389 67.9482C52.6094 67.5366 52.7181 67.0879 53.0233 66.7827L56.6331 63.1729L48.0723 54.612C44.0763 57.1326 39.2431 58.201 34.6436 57.6807C34.0099 57.609 33.5521 57.0355 33.6238 56.4019C33.6954 55.7683 34.2643 55.3104 34.9026 55.3821C39.2663 55.8769 43.8589 54.7577 47.5589 52.1793C48.0191 51.8578 48.6411 51.9133 49.0389 52.3111L59.0844 62.3589C59.5353 62.8098 59.5353 63.5429 59.0844 63.9938L56.2308 66.8474L69.1091 69.1091L66.8474 56.2308L63.9938 59.0844C63.5429 59.5353 62.8098 59.5353 62.3589 59.0844L52.3111 49.0389C51.8601 48.5879 51.8601 47.8549 52.3111 47.4039C52.762 46.953 53.4951 46.953 53.946 47.4039L63.1752 56.6331L66.785 53.0233C67.0903 52.7181 67.5435 52.6094 67.9505 52.7389C68.3621 52.8684 68.6674 53.2176 68.7414 53.6408L71.6736 70.3324C71.7384 70.7047 71.6181 71.0839 71.3522 71.3499C71.1302 71.5673 70.8342 71.6875 70.5313 71.6875ZM3.46875 71.6875C3.16582 71.6875 2.86982 71.5673 2.65013 71.3499C2.38419 71.0839 2.26394 70.7047 2.32869 70.3324L5.26094 53.6408C5.33725 53.2153 5.64019 52.8684 6.05182 52.7389C6.45882 52.6071 6.91207 52.7181 7.21732 53.0233L10.8271 56.6331L19.388 48.0723C17.2906 44.7492 16.1875 40.9405 16.1875 37C16.1875 36.2669 16.2268 35.5454 16.2985 34.8332C16.3656 34.1996 16.9183 33.7417 17.5681 33.8018C18.2017 33.8689 18.6642 34.4354 18.5971 35.0714C18.5347 35.705 18.5 36.3479 18.5 37C18.5 40.7902 19.6493 44.4416 21.8231 47.5589C22.1445 48.0191 22.089 48.6411 21.6913 49.0389L11.6434 59.0844C11.1925 59.5353 10.4594 59.5353 10.0085 59.0844L7.15488 56.2308L4.89325 69.1091L17.7716 66.8474L14.9156 63.9915C14.4647 63.5406 14.4647 62.8075 14.9156 62.3566L24.9611 52.3088C25.4121 51.8578 26.1451 51.8578 26.5961 52.3088C27.047 52.7597 27.047 53.4928 26.5961 53.9437L17.3669 63.1729L20.9767 66.7827C21.2819 67.0879 21.3906 67.5366 21.2611 67.9482C21.1316 68.3598 20.7824 68.6651 20.3593 68.7391L3.66763 71.6713C3.60288 71.6829 3.53582 71.6875 3.46875 71.6875ZM37 50.875C29.3479 50.875 23.125 44.6521 23.125 37C23.125 29.3479 29.3479 23.125 37 23.125C44.6521 23.125 50.875 29.3479 50.875 37C50.875 44.6521 44.6521 50.875 37 50.875ZM37 25.4375C30.6244 25.4375 25.4375 30.6244 25.4375 37C25.4375 43.3756 30.6244 48.5625 37 48.5625C43.3756 48.5625 48.5625 43.3756 48.5625 37C48.5625 30.6244 43.3756 25.4375 37 25.4375ZM56.5013 40.6329C56.4528 40.6329 56.4042 40.6306 56.3556 40.6237C55.722 40.5428 55.2734 39.9646 55.3543 39.331C55.4514 38.5633 55.5 37.7793 55.5 37C55.5 33.2098 54.3507 29.5584 52.1769 26.4411C51.8555 25.9809 51.911 25.3589 52.3088 24.9611L62.3566 14.9156C62.8075 14.4647 63.5406 14.4647 63.9915 14.9156L66.8451 17.7693L69.1068 4.89094L56.2284 7.15257L59.0821 10.0062C59.533 10.4571 59.533 11.1902 59.0821 11.6411L49.0389 21.6913C48.5879 22.1422 47.8549 22.1422 47.4039 21.6913C46.953 21.2403 46.953 20.5073 47.4039 20.0563L56.6331 10.8271L53.0233 7.21732C52.7181 6.91207 52.6094 6.46344 52.7389 6.05182C52.8684 5.64019 53.2176 5.33494 53.6408 5.26094L70.3324 2.32869C70.7001 2.26626 71.0839 2.38188 71.3499 2.65013C71.6158 2.91607 71.7361 3.29532 71.6713 3.66763L68.7391 20.3593C68.6628 20.7848 68.3598 21.1316 67.9482 21.2611C67.5389 21.3883 67.0856 21.2796 66.7827 20.9767L63.1729 17.3669L54.612 25.9278C56.7094 29.2508 57.8125 33.0595 57.8125 37C57.8125 37.8764 57.757 38.7575 57.6483 39.6224C57.572 40.2051 57.0748 40.6329 56.5013 40.6329ZM20.8726 26.936C20.5766 26.936 20.2806 26.8227 20.054 26.5984L10.8271 17.3692L7.21732 20.9767C6.91207 21.2819 6.46113 21.3906 6.05182 21.2611C5.64019 21.1316 5.33494 20.7824 5.26094 20.3593L2.32869 3.66763C2.26394 3.29532 2.38419 2.91607 2.65013 2.65013C2.91838 2.38419 3.29994 2.26626 3.66763 2.32869L20.3593 5.26094C20.7848 5.33726 21.1316 5.64019 21.2611 6.05182C21.3906 6.46344 21.2819 6.91207 20.9767 7.21732L17.3692 10.8271L25.9301 19.388C29.9492 16.8535 34.8239 15.7828 39.4351 16.3309C40.0687 16.4072 40.5219 16.9807 40.4479 17.6143C40.3716 18.2479 39.7912 18.7128 39.1645 18.6272C34.7823 18.1115 30.1619 19.2308 26.4434 21.8231C25.9833 22.1422 25.3589 22.0867 24.9634 21.6913L14.9156 11.6434C14.4647 11.1925 14.4647 10.4594 14.9156 10.0085L17.7693 7.15488L4.89325 4.89326L7.15488 17.7716L10.0085 14.9156C10.4594 14.4647 11.1925 14.4647 11.6434 14.9156L21.6913 24.9611C22.1422 25.4121 22.1422 26.1451 21.6913 26.5961C21.4646 26.8227 21.1686 26.936 20.8726 26.936Z" fill="#4B4E60"/>
<path d="M30.0625 54.3461C29.4266 54.3461 28.9062 54.8664 28.9062 55.5023C28.9062 56.1383 29.4266 56.6586 30.0625 56.6586C30.6984 56.6586 31.2188 56.1383 31.2188 55.5023C31.2188 54.8664 30.6984 54.3461 30.0625 54.3461Z" fill="#FE4B4B"/>
<path d="M55.5 42.7836C54.8641 42.7836 54.3438 43.3039 54.3438 43.9398C54.3438 44.5758 54.8641 45.0961 55.5 45.0961C56.1359 45.0961 56.6562 44.5758 56.6562 43.9398C56.6562 43.3039 56.1359 42.7836 55.5 42.7836Z" fill="#FE4B4B"/>
<path d="M18.5 28.9086C17.8641 28.9086 17.3438 29.4289 17.3438 30.0648C17.3438 30.7008 17.8641 31.2211 18.5 31.2211C19.1359 31.2211 19.6562 30.7008 19.6562 30.0648C19.6562 29.4289 19.1359 28.9086 18.5 28.9086Z" fill="#FE4B4B"/>
<path d="M43.9375 17.3461C43.3016 17.3461 42.7812 17.8664 42.7812 18.5023C42.7812 19.1383 43.3016 19.6586 43.9375 19.6586C44.5734 19.6586 45.0938 19.1383 45.0938 18.5023C45.0938 17.8664 44.5734 17.3461 43.9375 17.3461Z" fill="#FE4B4B"/>
</svg>
