<svg width="74" height="74" viewBox="0 0 74 74" fill="none" xmlns="http://www.w3.org/2000/svg">
<path d="M61.2812 69.375H42.7812C42.143 69.375 41.625 68.857 41.625 68.2188V49.7188C41.625 49.0805 42.143 48.5625 42.7812 48.5625H61.2812C61.9195 48.5625 62.4375 49.0805 62.4375 49.7188V68.2188C62.4375 68.857 61.9195 69.375 61.2812 69.375ZM43.9375 67.0625H60.125V50.875H43.9375V67.0625Z" fill="#4B4E60"/>
<path d="M24.2812 69.375H5.78125C5.143 69.375 4.625 68.857 4.625 68.2188V49.7188C4.625 49.0805 5.143 48.5625 5.78125 48.5625H24.2812C24.9195 48.5625 25.4375 49.0805 25.4375 49.7188V68.2188C25.4375 68.857 24.9195 69.375 24.2812 69.375ZM6.9375 67.0625H23.125V50.875H6.9375V67.0625Z" fill="#4B4E60"/>
<path d="M61.2812 32.375H42.7812C42.143 32.375 41.625 31.857 41.625 31.2188V12.7188C41.625 12.4112 41.7476 12.1175 41.9626 11.9001L48.9001 4.96262C49.1175 4.74756 49.4112 4.625 49.7188 4.625H68.2188C68.857 4.625 69.375 5.143 69.375 5.78125V24.2812C69.375 24.5888 69.2524 24.8825 69.0374 25.0999L62.0999 32.0374C61.8825 32.2524 61.5888 32.375 61.2812 32.375ZM43.9375 30.0625H60.8026L67.0625 23.8026V6.9375H50.1974L43.9375 13.1974V30.0625Z" fill="#4B4E60"/>
<path d="M61.2812 32.375H42.7812C42.143 32.375 41.625 31.857 41.625 31.2188V12.7188C41.625 12.0805 42.143 11.5625 42.7812 11.5625H61.2812C61.9195 11.5625 62.4375 12.0805 62.4375 12.7188V31.2188C62.4375 31.857 61.9195 32.375 61.2812 32.375ZM43.9375 30.0625H60.125V13.875H43.9375V30.0625Z" fill="#4B4E60"/>
<path d="M24.2812 32.375H5.78125C5.143 32.375 4.625 31.857 4.625 31.2188V12.7188C4.625 12.0805 5.143 11.5625 5.78125 11.5625H24.2812C24.9195 11.5625 25.4375 12.0805 25.4375 12.7188V31.2188C25.4375 31.857 24.9195 32.375 24.2812 32.375ZM6.9375 30.0625H23.125V13.875H6.9375V30.0625Z" fill="#4B4E60"/>
<path d="M61.2812 50.875C60.9852 50.875 60.6892 50.7617 60.4626 50.5374C60.0117 50.0864 60.0117 49.3533 60.4626 48.9024L66.2439 43.1212C66.6948 42.6702 67.4279 42.6702 67.8788 43.1212C68.3298 43.5721 68.3298 44.3052 67.8788 44.7561L62.0976 50.5374C61.8733 50.7617 61.5772 50.875 61.2812 50.875Z" fill="#4B4E60"/>
<path d="M24.2812 50.875C23.9852 50.875 23.6892 50.7617 23.4626 50.5374C23.0117 50.0864 23.0117 49.3533 23.4626 48.9024L29.2439 43.1212C29.6948 42.6702 30.4279 42.6702 30.8788 43.1212C31.3297 43.5721 31.3297 44.3052 30.8788 44.7561L25.0976 50.5374C24.8732 50.7617 24.5772 50.875 24.2812 50.875Z" fill="#4B4E60"/>
<path d="M61.2812 13.875C60.9852 13.875 60.6892 13.7617 60.4626 13.5373C60.0117 13.0864 60.0117 12.3533 60.4626 11.9024L66.2439 6.12116C66.6948 5.67022 67.4279 5.67022 67.8788 6.12116C68.3298 6.5721 68.3298 7.30516 67.8788 7.7561L62.0976 13.5373C61.8733 13.7617 61.5772 13.875 61.2812 13.875Z" fill="#4B4E60"/>
<path d="M24.2812 13.875C23.9852 13.875 23.6892 13.7617 23.4626 13.5373C23.0117 13.0864 23.0117 12.3533 23.4626 11.9024L29.2439 6.12116C29.6948 5.67022 30.4279 5.67022 30.8788 6.12116C31.3297 6.5721 31.3297 7.30516 30.8788 7.7561L25.0976 13.5373C24.8732 13.7617 24.5772 13.875 24.2812 13.875Z" fill="#4B4E60"/>
<path d="M41.625 57.8125H28.9062C28.268 57.8125 27.75 57.2945 27.75 56.6562C27.75 56.018 28.268 55.5 28.9062 55.5H41.625C42.2633 55.5 42.7812 56.018 42.7812 56.6562C42.7812 57.2945 42.2633 57.8125 41.625 57.8125Z" fill="#FE4B4B"/>
<path d="M41.625 20.8125H28.9062C28.268 20.8125 27.75 20.2945 27.75 19.6562C27.75 19.018 28.268 18.5 28.9062 18.5H41.625C42.2633 18.5 42.7812 19.018 42.7812 19.6562C42.7812 20.2945 42.2633 20.8125 41.625 20.8125Z" fill="#FE4B4B"/>
<path d="M42.7812 69.375C42.143 69.375 41.625 68.857 41.625 68.2187V49.7187C41.625 49.4112 41.7476 49.1175 41.9626 48.9001L48.9001 41.9626C49.3511 41.5117 50.0841 41.5117 50.5351 41.9626C50.986 42.4135 50.986 43.1466 50.5351 43.5975L43.9375 50.1974V67.0625H60.8026L67.0625 60.8025V43.9375H58.9688C58.3305 43.9375 57.8125 43.4195 57.8125 42.7812C57.8125 42.143 58.3305 41.625 58.9688 41.625H68.2188C68.857 41.625 69.375 42.143 69.375 42.7812V61.2812C69.375 61.5888 69.2524 61.8825 69.0374 62.0998L62.0999 69.0373C61.8825 69.2524 61.5888 69.375 61.2812 69.375H42.7812Z" fill="#4B4E60"/>
<path d="M54.3438 46.25C53.7055 46.25 53.1875 45.732 53.1875 45.0938V32.375C53.1875 31.7368 53.7055 31.2188 54.3438 31.2188C54.982 31.2188 55.5 31.7368 55.5 32.375V45.0938C55.5 45.732 54.982 46.25 54.3438 46.25Z" fill="#FE4B4B"/>
<path d="M17.3438 46.25C16.7055 46.25 16.1875 45.732 16.1875 45.0938V32.375C16.1875 31.7368 16.7055 31.2188 17.3438 31.2188C17.982 31.2188 18.5 31.7368 18.5 32.375V45.0938C18.5 45.732 17.982 46.25 17.3438 46.25Z" fill="#FE4B4B"/>
<path d="M5.78125 32.375C5.143 32.375 4.625 31.857 4.625 31.2188V12.7188C4.625 12.4112 4.74756 12.1175 4.96262 11.9001L11.9001 4.96262C12.1175 4.74756 12.4112 4.625 12.7188 4.625H31.2188C31.857 4.625 32.375 5.143 32.375 5.78125V15.0312C32.375 15.6695 31.857 16.1875 31.2188 16.1875C30.5805 16.1875 30.0625 15.6695 30.0625 15.0312V6.9375H13.1974L6.9375 13.1974V30.0625H23.8026L30.4024 23.4626C30.8534 23.0117 31.5864 23.0117 32.0374 23.4626C32.4883 23.9136 32.4883 24.6466 32.0374 25.0976L25.0999 32.0351C24.8825 32.2524 24.5888 32.375 24.2812 32.375H5.78125Z" fill="#4B4E60"/>
<path d="M24.2812 69.375H5.78125C5.143 69.375 4.625 68.857 4.625 68.2187V49.7187C4.625 49.4112 4.74756 49.1175 4.96262 48.9001L11.9001 41.9626C12.3511 41.5117 13.0841 41.5117 13.5351 41.9626C13.986 42.4135 13.986 43.1466 13.5351 43.5975L6.9375 50.1974V67.0625H23.8026L30.4024 60.4626C30.8534 60.0117 31.5864 60.0117 32.0374 60.4626C32.4883 60.9135 32.4883 61.6466 32.0374 62.0975L25.0999 69.035C24.8825 69.2524 24.5888 69.375 24.2812 69.375Z" fill="#4B4E60"/>
<path d="M30.0625 52.0312V43.9375H21.9688C21.3305 43.9375 20.8125 43.4195 20.8125 42.7812C20.8125 42.143 21.3305 41.625 21.9688 41.625H31.2188C31.857 41.625 32.375 42.143 32.375 42.7812V52.0312C32.375 52.6695 31.857 53.1875 31.2188 53.1875C30.5805 53.1875 30.0625 52.6695 30.0625 52.0312Z" fill="#4B4E60"/>
</svg>
