<svg width="74" height="74" viewBox="0 0 74 74" fill="none" xmlns="http://www.w3.org/2000/svg">
<path d="M37 71.6875C17.8733 71.6875 2.3125 56.1267 2.3125 37C2.3125 17.8733 17.8733 2.3125 37 2.3125C56.1267 2.3125 71.6875 17.8733 71.6875 37C71.6875 56.1267 56.1267 71.6875 37 71.6875ZM37 4.625C19.1475 4.625 4.625 19.1475 4.625 37C4.625 54.8525 19.1475 69.375 37 69.375C54.8525 69.375 69.375 54.8525 69.375 37C69.375 19.1475 54.8525 4.625 37 4.625Z" fill="#4B4E60"/>
<path d="M45.0937 55.5C44.4555 55.5 43.9375 54.982 43.9375 54.3437V35.8437C43.9375 35.2055 44.4555 34.6875 45.0937 34.6875H48.6434L37 18.1924L25.3565 34.6875H28.9062C29.5445 34.6875 30.0625 35.2055 30.0625 35.8437V49.7187C30.0625 50.357 29.5445 50.875 28.9062 50.875C28.268 50.875 27.75 50.357 27.75 49.7187V37H23.125C22.6925 37 22.2971 36.7595 22.0982 36.3756C21.8993 35.9917 21.9317 35.5292 22.1792 35.1754L36.0542 15.5192C36.4889 14.9064 37.511 14.9064 37.9435 15.5192L51.8185 35.1754C52.0659 35.5292 52.0983 35.9917 51.8994 36.3756C51.7005 36.7595 51.3074 37 50.875 37H46.25V54.3437C46.25 54.982 45.732 55.5 45.0937 55.5Z" fill="#FE4B4B"/>
<path d="M28.9062 55.5C29.5448 55.5 30.0625 54.9823 30.0625 54.3438C30.0625 53.7052 29.5448 53.1875 28.9062 53.1875C28.2677 53.1875 27.75 53.7052 27.75 54.3438C27.75 54.9823 28.2677 55.5 28.9062 55.5Z" fill="#FE4B4B"/>
</svg>
