<svg width="74" height="74" viewBox="0 0 74 74" fill="none" xmlns="http://www.w3.org/2000/svg">
<path d="M17.7137 61.5773C18.0884 61.0616 18.8168 60.946 19.3279 61.3229C19.8459 61.6952 19.9569 62.426 19.5822 62.937C19.2076 63.4527 18.4838 63.566 17.9704 63.1914C17.4524 62.8168 17.3391 62.093 17.7137 61.5773Z" fill="#4B4E60"/>
<path d="M54.4154 11.0631C54.79 10.5474 55.5139 10.4341 56.0272 10.8087C56.5475 11.1833 56.6585 11.9095 56.2839 12.4228C55.9093 12.9385 55.1809 13.0542 54.6698 12.6772C54.1541 12.3049 54.0408 11.5765 54.4154 11.0631Z" fill="#4B4E60"/>
<path d="M6.95137 45.547C7.55724 45.3504 8.21399 45.6834 8.40824 46.2893C8.60712 46.8952 8.26949 47.5496 7.66593 47.7461C7.06006 47.9427 6.40793 47.6097 6.21137 47.0038C6.01249 46.3957 6.34549 45.7435 6.95137 45.547Z" fill="#4B4E60"/>
<path d="M66.3364 26.2537C66.9423 26.0572 67.5944 26.3902 67.7909 26.9961C67.9898 27.6042 67.6545 28.2564 67.0509 28.4529C66.4451 28.6495 65.7883 28.3165 65.5941 27.7106C65.3929 27.1047 65.7305 26.4503 66.3364 26.2537Z" fill="#4B4E60"/>
<path d="M7.66593 26.2537C8.26949 26.4503 8.6048 27.1047 8.40593 27.7106C8.20936 28.3188 7.55493 28.6495 6.94905 28.4529C6.34318 28.2563 6.01017 27.6042 6.20905 26.996C6.40793 26.3878 7.06236 26.0572 7.66593 26.2537Z" fill="#4B4E60"/>
<path d="M67.0486 45.547C67.6545 45.7435 67.9875 46.3957 67.7886 47.0038C67.592 47.612 66.9376 47.9427 66.3317 47.7461C65.7282 47.5496 65.3929 46.8952 65.5917 46.2893C65.7883 45.6834 66.4427 45.3504 67.0486 45.547Z" fill="#4B4E60"/>
<path d="M19.5869 11.0629C19.9592 11.5786 19.8459 12.3047 19.3302 12.677C18.8145 13.054 18.0884 12.9384 17.7137 12.4227C17.3391 11.907 17.4547 11.1832 17.9704 10.8085C18.4861 10.4339 19.2122 10.5495 19.5869 11.0629Z" fill="#4B4E60"/>
<path d="M56.2862 61.5773C56.6609 62.093 56.5452 62.8168 56.0296 63.1914C55.5139 63.566 54.7901 63.4504 54.4154 62.937C54.0431 62.4213 54.1564 61.6952 54.6721 61.3229C55.1855 60.946 55.9116 61.0616 56.2862 61.5773Z" fill="#4B4E60"/>
<path d="M38.1562 5.78125C38.1562 6.41719 37.6359 6.9375 37 6.9375C36.364 6.9375 35.8437 6.41719 35.8437 5.78125C35.8437 5.14531 36.364 4.625 37 4.625C37.6359 4.625 38.1562 5.14531 38.1562 5.78125Z" fill="#4B4E60"/>
<path d="M38.1562 68.2188C38.1562 68.8547 37.6359 69.375 37 69.375C36.364 69.375 35.8437 68.8547 35.8437 68.2188C35.8437 67.5828 36.364 67.0625 37 67.0625C37.6359 67.0625 38.1562 67.5828 38.1562 68.2188Z" fill="#4B4E60"/>
<path d="M37 46.25C31.8986 46.25 27.75 42.1014 27.75 37C27.75 31.8986 31.8986 27.75 37 27.75C42.1014 27.75 46.25 31.8986 46.25 37C46.25 42.1014 42.1014 46.25 37 46.25ZM37 30.0625C33.1751 30.0625 30.0625 33.1751 30.0625 37C30.0625 40.8249 33.1751 43.9375 37 43.9375C40.8249 43.9375 43.9375 40.8249 43.9375 37C43.9375 33.1751 40.8249 30.0625 37 30.0625Z" fill="#FE4B4B"/>
<path d="M31.3644 42.7905L25.2155 51.2566C25.8075 51.7492 26.4411 52.1885 27.0955 52.6048L33.2514 44.1295C32.56 43.7664 31.9194 43.3293 31.3644 42.7905Z" fill="#FE4B4B"/>
<path d="M19.0758 59.7042C18.7012 60.2222 18.8122 60.9437 19.3279 61.3206C19.8459 61.6952 20.5674 61.5773 20.9443 61.0662L23.6869 57.2922C23.0417 56.8667 22.4174 56.4135 21.8161 55.9302L19.0758 59.7042Z" fill="#4B4E60"/>
<path d="M54.9242 14.2959C55.2988 13.7779 55.1878 13.0564 54.6721 12.6795C54.1541 12.3048 53.4326 12.4228 53.0557 12.9338L50.313 16.7078C50.9582 17.1333 51.5826 17.5866 52.1839 18.0699L54.9242 14.2959Z" fill="#4B4E60"/>
<path d="M42.6379 31.2095L48.7868 22.7435C48.1948 22.2509 47.5612 21.8115 46.9067 21.3953L40.7509 29.8706C41.44 30.2336 42.0806 30.6707 42.6379 31.2095Z" fill="#FE4B4B"/>
<path d="M9.15287 44.8348C8.54468 45.0314 8.21168 45.6812 8.40824 46.2917C8.60712 46.8999 9.25924 47.2283 9.86743 47.034L14.3121 45.5887C14.0415 44.8695 13.801 44.1388 13.5975 43.3918L9.15287 44.8348Z" fill="#4B4E60"/>
<path d="M29.045 38.3689L19.1012 41.6018C19.2932 42.3533 19.5267 43.091 19.8089 43.801L29.7734 40.5658C29.4312 39.879 29.1791 39.1482 29.045 38.3689Z" fill="#FE4B4B"/>
<path d="M44.955 35.631L54.8987 32.3982C54.7068 31.6466 54.4733 30.9089 54.1911 30.199L44.2266 33.4342C44.5688 34.121 44.8209 34.8517 44.955 35.631Z" fill="#FE4B4B"/>
<path d="M64.8471 29.1652C65.4553 28.9686 65.7883 28.3188 65.5917 27.7083C65.3929 27.1001 64.7407 26.7717 64.1325 26.966L59.6879 28.4113C59.9585 29.1305 60.199 29.8612 60.4025 30.6082L64.8471 29.1652Z" fill="#4B4E60"/>
<path d="M9.86743 26.9683C9.25925 26.7718 8.60712 27.1025 8.40825 27.7083C8.21168 28.3188 8.547 28.9686 9.15056 29.1675L13.5975 30.6128C13.801 29.8636 14.0369 29.1282 14.3121 28.4113L9.86743 26.9683Z" fill="#4B4E60"/>
<path d="M29.7711 33.4342L19.8065 30.199C19.5244 30.9135 19.2909 31.6489 19.0989 32.4005L29.0427 35.631C29.1791 34.8517 29.4312 34.121 29.7711 33.4342Z" fill="#FE4B4B"/>
<path d="M64.8494 44.8325L60.4025 43.3872C60.199 44.1365 59.9631 44.8718 59.6879 45.5887L64.1325 47.0317C64.7407 47.2283 65.3929 46.8976 65.5917 46.2917C65.7883 45.6812 65.4553 45.0314 64.8494 44.8325Z" fill="#4B4E60"/>
<path d="M44.2289 40.5658L54.1934 43.801C54.4756 43.0864 54.7091 42.351 54.9011 41.5995L44.9573 38.3689C44.8209 39.1482 44.5688 39.879 44.2289 40.5658Z" fill="#FE4B4B"/>
<path d="M33.2491 29.8706L27.0909 21.3953C26.4411 21.8115 25.8052 22.2509 25.2109 22.7435L31.3621 31.2095C31.9171 30.673 32.56 30.236 33.2491 29.8706Z" fill="#FE4B4B"/>
<path d="M20.9466 12.9361C20.5697 12.4181 19.8459 12.3025 19.3279 12.6771C18.8099 13.0541 18.6989 13.7779 19.0735 14.2936L21.8161 18.0676C22.4174 17.5843 23.0394 17.131 23.6869 16.7055L20.9466 12.9361Z" fill="#4B4E60"/>
<path d="M53.0534 61.0639C53.4303 61.5819 54.1541 61.6952 54.6698 61.3206C55.1878 60.9437 55.2988 60.2199 54.9242 59.7042L52.1816 55.9302C51.5803 56.4135 50.9582 56.8667 50.3107 57.2922L53.0534 61.0639Z" fill="#4B4E60"/>
<path d="M40.7509 44.1295L46.9091 52.6048C47.5589 52.1885 48.1948 51.7492 48.7891 51.2566L42.6379 42.7905C42.0829 43.327 41.44 43.7641 40.7509 44.1295Z" fill="#FE4B4B"/>
<path d="M38.1562 12.7766V8.09375C38.1562 7.4555 37.6382 6.9375 37 6.9375C36.3617 6.9375 35.8437 7.4555 35.8437 8.09375V12.7766C36.2299 12.7604 36.6092 12.7188 37 12.7188C37.3908 12.7188 37.77 12.7604 38.1562 12.7766Z" fill="#4B4E60"/>
<path d="M37 28.9062C37.3954 28.9062 37.7747 28.9664 38.1562 29.0242V18.5578C37.7724 18.5347 37.3908 18.5 37 18.5C36.6092 18.5 36.2276 18.5347 35.8437 18.5578V29.0219C36.2253 28.9664 36.6045 28.9062 37 28.9062Z" fill="#FE4B4B"/>
<path d="M35.8437 61.2234V65.9062C35.8437 66.5445 36.3617 67.0625 37 67.0625C37.6382 67.0625 38.1562 66.5445 38.1562 65.9062V61.2234C37.77 61.2396 37.3908 61.2812 37 61.2812C36.6092 61.2812 36.2299 61.2396 35.8437 61.2234Z" fill="#4B4E60"/>
<path d="M37 45.0938C36.6045 45.0938 36.2253 45.0336 35.8437 44.9758V55.4399C36.2276 55.4653 36.6092 55.5 37 55.5C37.3908 55.5 37.7724 55.4653 38.1562 55.4422V44.9781C37.7747 45.0336 37.3954 45.0938 37 45.0938Z" fill="#FE4B4B"/>
<path d="M37 62.4375C22.9747 62.4375 11.5625 51.0253 11.5625 37C11.5625 34.3314 11.9764 31.7021 12.7881 29.1814C12.9847 28.5733 13.6414 28.2426 14.2427 28.4368C14.8509 28.6334 15.1839 29.2832 14.9873 29.8914C14.2496 32.1807 13.875 34.5719 13.875 37C13.875 49.7511 24.2489 60.125 37 60.125C49.7511 60.125 60.125 49.7511 60.125 37C60.125 24.2489 49.7511 13.875 37 13.875C33.5775 13.875 30.2799 14.6058 27.2043 16.0464C26.6284 16.317 25.937 16.0672 25.6664 15.4891C25.3959 14.911 25.6456 14.2219 26.2238 13.9513C29.6093 12.3672 33.2329 11.5625 37 11.5625C51.0253 11.5625 62.4375 22.9747 62.4375 37C62.4375 51.0253 51.0253 62.4375 37 62.4375ZM37 56.6562C26.1613 56.6562 17.3438 47.8387 17.3438 37C17.3438 26.1613 26.1613 17.3438 37 17.3438C47.8387 17.3438 56.6562 26.1613 56.6562 37C56.6562 47.8387 47.8387 56.6562 37 56.6562ZM37 19.6562C27.4355 19.6562 19.6562 27.4355 19.6562 37C19.6562 46.5645 27.4355 54.3438 37 54.3438C46.5645 54.3438 54.3438 46.5645 54.3438 37C54.3438 27.4355 46.5645 19.6562 37 19.6562ZM15.9563 26.0364C15.7597 26.0364 15.5608 25.9879 15.3781 25.8815C14.8254 25.5624 14.6358 24.8571 14.9549 24.3021C16.7541 21.1825 19.2492 18.4283 22.1699 16.3309C22.6879 15.9562 23.4117 16.0742 23.7841 16.5945C24.1564 17.1148 24.0361 17.8363 23.5204 18.2086C20.8634 20.1141 18.5925 22.6209 16.9552 25.4583C16.7448 25.8283 16.354 26.0364 15.9563 26.0364Z" fill="#4B4E60"/>
<path d="M55.5092 68.8569C55.1184 68.8569 54.7369 68.6581 54.5195 68.2996C54.1888 67.7539 54.3646 67.0416 54.9103 66.7109C61.1679 62.9277 66.1699 57.1464 68.9934 50.4263C69.2386 49.8366 69.9208 49.5614 70.5058 49.8065C71.0955 50.054 71.373 50.7315 71.1256 51.3189C68.1124 58.4877 62.7821 64.6574 56.1082 68.6881C55.9209 68.8037 55.7151 68.8569 55.5092 68.8569Z" fill="#FE4B4B"/>
<path d="M50.8842 70.5312C50.8842 71.1672 50.3639 71.6875 49.728 71.6875C49.0921 71.6875 48.5717 71.1672 48.5717 70.5312C48.5717 69.8953 49.0921 69.375 49.728 69.375C50.3639 69.375 50.8842 69.8953 50.8842 70.5312Z" fill="#FE4B4B"/>
<path d="M3.94049 24.2812C3.79249 24.2812 3.63756 24.2511 3.49418 24.191C2.90449 23.9458 2.62699 23.266 2.87443 22.6786C5.88762 15.5029 11.2272 9.33316 17.9103 5.29784C18.4537 4.97178 19.1683 5.14059 19.499 5.68866C19.8297 6.23441 19.6539 6.94666 19.1082 7.27734C12.839 11.0606 7.83243 16.8488 5.00656 23.5735C4.82156 24.0152 4.39143 24.2812 3.94049 24.2812Z" fill="#FE4B4B"/>
<path d="M25.4467 3.46875C25.4467 4.10469 24.9264 4.625 24.2905 4.625C23.6546 4.625 23.1342 4.10469 23.1342 3.46875C23.1342 2.83281 23.6546 2.3125 24.2905 2.3125C24.9264 2.3125 25.4467 2.83281 25.4467 3.46875Z" fill="#FE4B4B"/>
</svg>
