<svg width="74" height="74" viewBox="0 0 74 74" fill="none" xmlns="http://www.w3.org/2000/svg">
<path d="M42.7812 32.375C42.143 32.375 41.625 31.857 41.625 31.2188C41.625 26.7556 45.2556 23.125 49.7188 23.125C53.1042 23.125 56.1591 25.2594 57.3223 28.4368C57.5419 29.0381 57.2321 29.7018 56.6331 29.9214C56.0342 30.1388 55.3682 29.8312 55.1485 29.2323C54.3183 26.9614 52.1376 25.4375 49.7188 25.4375C46.5321 25.4375 43.9375 28.0298 43.9375 31.2188C43.9375 31.857 43.4195 32.375 42.7812 32.375Z" fill="#FE4B4B"/>
<path d="M31.2187 32.375C30.5805 32.375 30.0625 31.857 30.0625 31.2188C30.0625 28.0298 27.4679 25.4375 24.2812 25.4375C21.9017 25.4375 19.7302 26.9314 18.8792 29.1514C18.6503 29.748 17.982 30.0486 17.3854 29.8174C16.7887 29.5884 16.4904 28.9201 16.7194 28.3235C17.9103 25.2132 20.9512 23.125 24.2812 23.125C28.7444 23.125 32.375 26.7556 32.375 31.2188C32.375 31.857 31.857 32.375 31.2187 32.375Z" fill="#FE4B4B"/>
<path d="M37 69.375C19.1475 69.375 4.625 54.8525 4.625 37C4.625 19.1475 19.1475 4.625 37 4.625C54.8525 4.625 69.375 19.1475 69.375 37C69.375 54.8525 54.8525 69.375 37 69.375ZM37 6.9375C20.424 6.9375 6.9375 20.424 6.9375 37C6.9375 53.576 20.424 67.0625 37 67.0625C53.576 67.0625 67.0625 53.576 67.0625 37C67.0625 20.424 53.576 6.9375 37 6.9375Z" fill="#4B4E60"/>
<path d="M37 50.8751C23.199 50.8751 16.6986 42.6819 16.428 42.3327C16.0395 41.8286 16.1297 41.1071 16.6338 40.714C17.1403 40.3255 17.8664 40.4133 18.2549 40.9175C18.315 40.9915 24.383 48.5626 37 48.5626C49.6794 48.5626 55.6827 40.9961 55.7405 40.9175C56.1313 40.411 56.8574 40.3208 57.3639 40.7093C57.868 41.1001 57.9605 41.8263 57.5697 42.3304C57.3014 42.6819 50.801 50.8751 37 50.8751Z" fill="#FE4B4B"/>
<path d="M54.3484 19.6562C54.2513 19.6562 54.1564 19.6447 54.0593 19.6193C54.0154 19.6077 49.6725 18.5 46.2523 18.5C45.6141 18.5 45.0961 17.982 45.0961 17.3438C45.0961 16.7055 45.6141 16.1875 46.2523 16.1875C49.9685 16.1875 54.4455 17.3322 54.6351 17.3807C55.2526 17.5403 55.6249 18.1716 55.4653 18.7891C55.3312 19.3117 54.8618 19.6562 54.3484 19.6562Z" fill="#FE4B4B"/>
<path d="M19.6563 19.6562C19.1406 19.6562 18.6688 19.3094 18.537 18.7844C18.3798 18.1647 18.7544 17.5357 19.3718 17.3807C19.5638 17.3299 24.1055 16.1875 27.75 16.1875C28.3883 16.1875 28.9063 16.7055 28.9063 17.3438C28.9063 17.982 28.3883 18.5 27.75 18.5C24.3992 18.5 19.9846 19.6077 19.9407 19.6193C19.8459 19.6447 19.7511 19.6562 19.6563 19.6562Z" fill="#FE4B4B"/>
</svg>
