<svg width="74" height="74" viewBox="0 0 74 74" fill="none" xmlns="http://www.w3.org/2000/svg">
<path d="M18.3312 71.3752C17.7461 71.3752 17.2443 70.9335 17.1842 70.3392L16.2546 61.4176H10.9173C9.43269 61.4176 8.1585 60.2637 8.01281 58.7883L7.33756 51.8462H4.53481C3.7 51.8462 3.00856 51.4923 2.63856 50.8726C2.26856 50.2552 2.28244 49.4758 2.67788 48.7405L6.71781 39.7911L6.57213 37.2103C6.56981 32.7888 8.5655 28.5269 12.0458 25.4513C12.5222 25.0281 13.2553 25.072 13.6784 25.553C14.1016 26.0317 14.0554 26.7625 13.5767 27.1857C10.5473 29.8589 8.88231 33.397 8.88231 37.1456L9.04188 39.9437C9.05344 40.1287 9.01875 40.316 8.94244 40.4848L4.85625 49.5267L8.38744 49.5337C8.98406 49.5337 9.48125 49.9846 9.53906 50.5766L10.3161 58.5617C10.3438 58.8461 10.6306 59.1028 10.9173 59.1028H17.2952C17.8872 59.1028 18.3844 59.5491 18.4445 60.1388L19.4828 70.0987C19.5499 70.7323 19.0874 71.3035 18.4538 71.3683C18.4121 71.3729 18.3705 71.3752 18.3312 71.3752Z" fill="#4B4E60"/>
<path d="M29.4104 71.4701C28.8276 71.4701 28.3258 71.0307 28.2634 70.4364L26.8874 57.5558H20.5905C18.9671 57.5558 17.575 56.2932 17.4247 54.6837L16.6315 46.5529H13.2506C12.3511 46.5529 11.6111 46.176 11.2156 45.5192C10.8225 44.8602 10.841 44.0277 11.2642 43.2345L15.9331 32.8953L15.7643 29.8752C15.762 24.0338 18.8307 18.4792 23.9714 14.9595C24.4963 14.5988 25.2178 14.7329 25.5763 15.2602C25.937 15.7874 25.8052 16.5043 25.2756 16.865C20.7663 19.9569 18.0745 24.7969 18.0745 29.8104L18.2572 33.0456C18.2688 33.2329 18.2341 33.4179 18.1578 33.5867L13.3524 44.2219L17.6814 44.2404C18.278 44.2404 18.7752 44.6914 18.833 45.2834L19.7279 54.4617C19.7673 54.8802 20.1696 55.2433 20.5905 55.2433H27.9258C28.5177 55.2433 29.0126 55.6873 29.0751 56.277L30.562 70.1936C30.6291 70.8272 30.1712 71.3984 29.5352 71.4655C29.4936 71.4678 29.452 71.4701 29.4104 71.4701Z" fill="#4B4E60"/>
<path d="M38.0938 54.2627H32.1137C30.3562 54.2627 28.8531 52.896 28.6866 51.1501L27.7801 41.8238H23.8164C22.8544 41.8238 22.0636 41.4237 21.6473 40.7253C21.2311 40.0293 21.2519 39.1436 21.7097 38.2949L27.0007 26.5636L26.8088 23.1087C26.8065 11.5485 37.0902 2.19678 49.7326 2.19678C62.2109 2.19678 71.6251 12.0527 71.6251 25.1183C71.6251 30.1087 70.4041 34.8608 67.8881 39.6431C67.5921 40.2096 66.8891 40.4224 66.3271 40.1287C65.7606 39.8327 65.5432 39.132 65.8415 38.5678C68.1771 34.1232 69.3126 29.7248 69.3126 25.1183C69.3126 13.3685 60.8951 4.50928 49.7326 4.50928C38.3667 4.50928 29.119 12.825 29.119 23.0463L29.3248 26.7185C29.3364 26.9035 29.3017 27.0885 29.2254 27.2573L23.7818 39.3217C23.7378 39.4026 23.7101 39.4673 23.6916 39.5113C23.7286 39.5136 23.7656 39.5136 23.8164 39.5136H28.8299C29.4266 39.5136 29.9238 39.9645 29.9816 40.5588L30.9898 50.9327C31.0407 51.4854 31.5564 51.9502 32.1137 51.9502H38.0938C38.7321 51.9502 39.2501 52.4682 39.2501 53.1065C39.2501 53.7447 38.7321 54.2627 38.0938 54.2627Z" fill="#4B4E60"/>
<path d="M51.7954 41.4562H47.6375C47.0941 41.4562 46.6246 41.0769 46.509 40.5451L45.8245 37.4186C44.8648 37.1388 43.9421 36.7549 43.0634 36.2716L40.367 37.999C39.9091 38.2927 39.3102 38.2279 38.9263 37.8441L35.9871 34.9049C35.6033 34.521 35.5385 33.9197 35.8322 33.4642L37.5596 30.7678C37.0763 29.8891 36.6924 28.9664 36.4126 28.0067L33.2861 27.3222C32.7519 27.2066 32.375 26.7371 32.375 26.1914V22.0312C32.375 21.4877 32.7519 21.0183 33.2838 20.9027L36.408 20.2182C36.6901 19.2562 37.0763 18.3335 37.5573 17.4571L35.8299 14.7607C35.5362 14.3051 35.6009 13.7039 35.9848 13.32L38.924 10.3808C39.3079 9.99693 39.9068 9.93218 40.3647 10.2259L43.0611 11.9533C43.9421 11.47 44.8648 11.0861 45.8222 10.8063L46.5067 7.67981C46.6223 7.15025 47.0918 6.771 47.6352 6.771H51.7954C52.3388 6.771 52.8083 7.14793 52.9239 7.67981L53.6084 10.8086C54.5658 11.0861 55.4884 11.47 56.3695 11.9533L59.0659 10.2259C59.5261 9.92987 60.125 9.99462 60.5089 10.3785L63.4481 13.3177C63.8319 13.7016 63.8967 14.3028 63.603 14.7584L61.8779 17.4594C62.3612 18.3404 62.7451 19.2631 63.0226 20.2182L66.1514 20.9027C66.6809 21.0183 67.0602 21.4877 67.0602 22.0312V26.1914C67.0602 26.7348 66.6833 27.2042 66.1514 27.3199L63.0226 28.0044C62.7451 28.9594 62.3612 29.8844 61.8779 30.7632L63.6053 33.4619C63.899 33.9174 63.8343 34.5187 63.4504 34.9026L60.5112 37.8441C60.125 38.2302 59.5261 38.2881 59.0705 37.999L56.3741 36.2693C55.4954 36.7526 54.5727 37.1341 53.613 37.4139L52.9285 40.5428C52.8106 41.0769 52.3411 41.4562 51.7954 41.4562ZM48.5671 39.1437H50.8658L51.5017 36.2346C51.5965 35.7998 51.9341 35.4552 52.3666 35.3535C53.5783 35.0714 54.7276 34.5927 55.7868 33.9359C56.1614 33.7024 56.6447 33.7024 57.0193 33.9452L59.5284 35.5524L61.1541 33.9267L59.5469 31.4176C59.3064 31.043 59.3041 30.5643 59.5353 30.1874C60.199 29.1144 60.6754 27.9651 60.9552 26.7649C61.0569 26.3301 61.3992 25.9948 61.8339 25.9L64.7431 25.2641V22.9631L61.8363 22.3249C61.4015 22.2301 61.0593 21.8924 60.9575 21.46C60.6777 20.2575 60.2013 19.1082 59.5376 18.0375C59.3041 17.6606 59.3087 17.1819 59.5492 16.8072L61.1564 14.2982L59.5307 12.6725L57.0216 14.2797C56.647 14.5225 56.1683 14.5225 55.7891 14.2889C54.7253 13.6299 53.576 13.1535 52.3689 12.8714C51.9341 12.7696 51.5988 12.4274 51.504 11.9926L50.8681 9.0835H48.5694L47.9335 11.9926C47.8387 12.4274 47.5011 12.7696 47.0663 12.8714C45.8615 13.1512 44.7122 13.6276 43.6461 14.2889C43.2692 14.5225 42.7905 14.5225 42.4136 14.2797L39.9045 12.6725L38.2788 14.2982L39.886 16.8072C40.1265 17.1819 40.1288 17.6629 39.8953 18.0398C39.2385 19.0966 38.7598 20.2482 38.4707 21.4623C38.369 21.8971 38.0291 22.2301 37.5943 22.3249L34.6875 22.9631V25.2617L37.5966 25.8977C38.0314 25.9925 38.3736 26.3301 38.4754 26.7626C38.7575 27.972 39.2339 29.1236 39.8929 30.1828C40.1288 30.5597 40.1265 31.0407 39.8837 31.4153L38.2765 33.9244L39.9022 35.5501L42.4113 33.9429C42.7882 33.7024 43.2715 33.7024 43.6438 33.9336C44.7052 34.5927 45.8546 35.0714 47.064 35.3512C47.4987 35.4529 47.8364 35.7952 47.9312 36.2322L48.5671 39.1437ZM49.7141 32.2085C45.251 32.2085 41.6204 28.5779 41.6204 24.1147C41.6204 19.6516 45.251 16.021 49.7141 16.021C54.1772 16.021 57.8079 19.6516 57.8079 24.1147C57.8079 28.5779 54.1772 32.2085 49.7141 32.2085ZM49.7141 18.3335C46.5252 18.3335 43.9329 20.9258 43.9329 24.1147C43.9329 27.3037 46.5252 29.896 49.7141 29.896C52.9031 29.896 55.4954 27.3037 55.4954 24.1147C55.4954 20.9258 52.9031 18.3335 49.7141 18.3335Z" fill="#FE4B4B"/>
<path d="M58.8369 69.2222H55.4052C54.8617 69.2222 54.3923 68.843 54.2767 68.3111L53.7402 65.8483C53.0164 65.6286 52.3134 65.3372 51.6451 64.9788L49.5176 66.3385C49.0597 66.6345 48.4607 66.5675 48.0769 66.1836L45.6487 63.7555C45.2649 63.3716 45.2001 62.7703 45.4938 62.3124L46.8582 60.1896C46.4974 59.5189 46.2061 58.816 45.9864 58.0944L43.5259 57.5556C42.9963 57.44 42.6147 56.9706 42.6147 56.4271V52.9954C42.6147 52.4519 42.994 51.9825 43.5259 51.8669L45.9864 51.3281C46.2061 50.6043 46.4974 49.9036 46.8582 49.233L45.4938 47.1055C45.2001 46.6499 45.2649 46.0486 45.6487 45.6648L48.0746 43.2389C48.4584 42.8551 49.0574 42.788 49.5152 43.084L51.6427 44.4438C52.3111 44.0853 53.0141 43.7916 53.7379 43.5719L54.2744 41.1138C54.39 40.5842 54.8594 40.2026 55.4029 40.2026H58.8346C59.3757 40.2026 59.8475 40.5796 59.9631 41.1114L60.5019 43.5719C61.2257 43.7916 61.9264 44.083 62.5994 44.4438L64.7222 43.084C65.1801 42.7926 65.7767 42.8551 66.1629 43.2389L68.5887 45.6648C68.9726 46.0486 69.0374 46.6476 68.7437 47.1055L67.3839 49.233C67.7424 49.9036 68.0361 50.6066 68.2557 51.3281L70.7162 51.8669C71.2458 51.9825 71.6274 52.4519 71.6274 52.9954V56.4248C71.6274 56.9683 71.2481 57.4377 70.7162 57.5533L68.2534 58.0921C68.0361 58.816 67.7447 59.5143 67.3839 60.1873L68.7437 62.3124C69.0374 62.768 68.9726 63.3693 68.5887 63.7531L66.1629 66.1813C65.7767 66.5674 65.1709 66.6253 64.7222 66.3362L62.5994 64.9741C61.9264 65.3326 61.2257 65.624 60.5019 65.8436L59.9631 68.3088C59.8521 68.8453 59.3827 69.2222 58.8369 69.2222ZM56.3371 66.9097H57.9073L58.3999 64.6643C58.4947 64.2295 58.8346 63.8873 59.2671 63.7855C60.2383 63.5589 61.1656 63.175 62.0282 62.6431C62.4028 62.4073 62.8838 62.4096 63.2584 62.6524L65.1894 63.8896L66.2994 62.7796L65.0622 60.8463C64.8217 60.4717 64.8194 59.993 65.0529 59.6138C65.5871 58.7512 65.971 57.8239 66.1953 56.8573C66.2971 56.4225 66.637 56.0826 67.0764 55.9878L69.3195 55.4975V53.925L67.081 53.4348C66.6462 53.34 66.304 53.0023 66.2022 52.5699C65.971 51.5963 65.5848 50.669 65.0529 49.8088C64.8171 49.4295 64.8194 48.9508 65.0622 48.5762L66.2994 46.6406L65.1894 45.5306L63.2584 46.7678C62.8838 47.0083 62.4028 47.0083 62.0282 46.7771C61.1633 46.2429 60.2337 45.8567 59.2647 45.6278C58.83 45.526 58.4947 45.1861 58.3999 44.7513L57.9073 42.5128H56.3348L55.8469 44.7467C55.7521 45.1814 55.4144 45.5237 54.982 45.6254C54.0061 45.8567 53.0788 46.2429 52.2209 46.7748C51.8486 47.0083 51.3652 47.0083 50.9883 46.7655L49.0527 45.5283L47.9427 46.6383L49.1846 48.5739C49.4251 48.9485 49.4274 49.4272 49.1938 49.8064C48.6619 50.6667 48.2757 51.594 48.0445 52.5676C47.9427 53.0023 47.6028 53.3376 47.1657 53.4325L44.9272 53.9227V55.4952L47.1657 55.9854C47.6005 56.0803 47.9427 56.4179 48.0445 56.8503C48.2757 57.8239 48.6619 58.7512 49.1938 59.6115C49.4297 59.9907 49.4274 60.4694 49.1846 60.8463L47.9451 62.7796L49.0527 63.8873L50.9883 62.6501C51.3652 62.4096 51.8486 62.4096 52.2209 62.6408C53.0742 63.1704 54.0038 63.5566 54.9797 63.7832C55.4144 63.885 55.7521 64.2272 55.8469 64.6643L56.3371 66.9097ZM57.1211 61.591C53.3262 61.591 50.2414 58.5061 50.2414 54.7113C50.2414 50.9165 53.3262 47.8316 57.1211 47.8316C60.9159 47.8316 64.0007 50.9165 64.0007 54.7113C64.0007 58.5061 60.9159 61.591 57.1211 61.591ZM57.1211 50.1464C54.6027 50.1464 52.5539 52.1953 52.5539 54.7136C52.5539 57.2319 54.6027 59.2808 57.1211 59.2808C59.6394 59.2808 61.6882 57.2319 61.6882 54.7136C61.6882 52.1953 59.6394 50.1464 57.1211 50.1464Z" fill="#FE4B4B"/>
</svg>
